# xmcd
#
# Track frame offsets:
#	182
#	18380
#	33362
#	50742
#
# Disc length: 929 seconds
#
# Revision: 1
# Processed by: cddbd v1.4PL0 Copyright (c) Steve Scherf et al.
# Submitted via: audiograbber 1.81.03
#
DISCID=2c039f04
DTITLE=Latwerch-Band - Jahreszeiten
DYEAR=1994
DGENRE=Pop
TTITLE0=Woihnachte
TTITLE1=De Friehling kummt
TTITLE2=Strandbad - Reggae
TTITLE3=Herbscht
EXTD=
EXTT0=
EXTT1=
EXTT2=
EXTT3=
PLAYORDER=
